<?xml version="1.0" standalone="no"?>
<!DOCTYPE svg PUBLIC "-//W3C//DTD SVG 20010904//EN"
 "http://www.w3.org/TR/2001/REC-SVG-20010904/DTD/svg10.dtd">
<svg version="1.0" xmlns="http://www.w3.org/2000/svg"
 width="750.000000pt" height="750.000000pt" viewBox="0 0 750.000000 750.000000"
 preserveAspectRatio="xMidYMid meet">
<metadata>
Created by potrace 1.11, written by Peter Selinger 2001-2013
</metadata>
<g transform="translate(0.000000,750.000000) scale(0.100000,-0.100000)"
fill="#000000" stroke="none">
<path d="M2059 7226 c-2 -2 -31 -6 -64 -9 -55 -6 -150 -21 -200 -31 -89 -19
-134 -31 -230 -62 -141 -46 -166 -56 -311 -129 -485 -245 -867 -671 -1060
-1183 -23 -62 -71 -221 -80 -267 -2 -11 -8 -42 -14 -70 -15 -78 -19 -105 -27
-175 -5 -36 -8 -742 -8 -1570 0 -1622 -2 -1561 51 -1780 22 -93 75 -263 85
-275 5 -5 9 -15 9 -22 0 -16 105 -235 150 -313 123 -212 365 -482 568 -633
229 -171 464 -286 737 -362 63 -18 68 -19 155 -35 30 -6 65 -12 77 -14 12 -3
53 -8 90 -13 84 -10 3420 -11 3518 -1 39 4 106 15 150 23 44 9 89 18 100 19
95 15 343 105 485 177 292 146 576 386 773 651 48 64 87 119 87 121 0 3 18 35
40 71 147 241 251 553 289 866 11 89 8 3066 -3 3125 -36 193 -60 295 -91 385
-19 58 -37 110 -39 115 -43 129 -189 393 -294 529 -72 94 -89 114 -197 222
-263 266 -565 447 -925 555 -52 15 -108 30 -125 33 -16 3 -45 10 -63 15 -18 5
-35 10 -37 10 -13 0 -103 13 -130 19 -31 6 -3458 15 -3466 8z"/>
</g>
</svg>
