<svg xmlns="http://www.w3.org/2000/svg" viewBox="0 0 114 104"><defs><style>.cls-1{fill:none;stroke:#fff;stroke-miterlimit:10;stroke-width:4px;}</style></defs><title>Asset 40</title><g id="Layer_2" data-name="Layer 2"><g id="Layer_1-2" data-name="Layer 1"><path class="cls-1" d="M32.46,102c-4.49,0-8.14-3.92-8.14-8.73s3.65-8.73,8.14-8.73,8.14,3.92,8.14,8.73S36.95,102,32.46,102Zm0-12.22a3.49,3.49,0,1,0,3.25,3.49A3.38,3.38,0,0,0,32.46,89.78Z"/><path class="cls-1" d="M83.94,102c-4.49,0-8.14-3.92-8.14-8.73s3.65-8.73,8.14-8.73,8.14,3.92,8.14,8.73S88.42,102,83.94,102Zm0-12.22a3.49,3.49,0,1,0,3.25,3.49A3.38,3.38,0,0,0,83.94,89.78Z"/><path class="cls-1" d="M109.56,2H92.45A2.54,2.54,0,0,0,90,4.62v10.5H4.45a2.38,2.38,0,0,0-1.9,1A2.76,2.76,0,0,0,2,18.26L11.41,68.1a2.49,2.49,0,0,0,2.39,2.1H90v7.87H21.56a2.63,2.63,0,0,0,0,5.25H92.45a2.54,2.54,0,0,0,2.45-2.62V7.25h14.66A2.54,2.54,0,0,0,112,4.62,2.54,2.54,0,0,0,109.56,2Z"/><polygon class="cls-1" points="15.8 64.96 7.43 20.37 90 20.37 90 64.96 15.8 64.96"/></g></g></svg>