<svg xmlns="http://www.w3.org/2000/svg" viewBox="0 0 112.42 95.84"><defs><style>.cls-1{fill:none;stroke:#000;stroke-miterlimit:10;stroke-width:4px;}</style></defs><title>Asset 32</title><g id="Layer_2" data-name="Layer 2"><g id="Layer_1-2" data-name="Layer 1"><path class="cls-1" d="M32,93.84a8,8,0,1,1,8-8A8,8,0,0,1,32,93.84Zm0-11.22a3.2,3.2,0,1,0,3.2,3.2A3.21,3.21,0,0,0,32,82.62Z"/><path class="cls-1" d="M82.76,93.84a8,8,0,1,1,8-8A8,8,0,0,1,82.76,93.84Zm0-11.22a3.2,3.2,0,1,0,3.2,3.2A3.21,3.21,0,0,0,82.76,82.62Z"/><path class="cls-1" d="M108,2H91.15a2.41,2.41,0,0,0-2.41,2.41v9.64H4.41A2.41,2.41,0,0,0,2,16.93l9.23,45.78a2.4,2.4,0,0,0,2.36,1.93h75.1v7.23H21.28a2.41,2.41,0,0,0,0,4.82H91.15a2.41,2.41,0,0,0,2.41-2.41V6.82H108A2.41,2.41,0,0,0,108,2Z"/><polygon class="cls-1" points="15.61 59.82 7.36 18.86 88.74 18.86 88.74 59.82 15.61 59.82"/></g></g></svg>