<svg xmlns="http://www.w3.org/2000/svg" viewBox="0 0 60.93 100.2"><defs><style>.cls-1{fill:none;stroke:#000;stroke-miterlimit:10;stroke-width:6px;}</style></defs><title>Asset 30</title><g id="Layer_2" data-name="Layer 2"><g id="Layer_1-2" data-name="Layer 1"><path class="cls-1" d="M53.7,84.51" transform="translate(0 -5.45)"/><path class="cls-1" d="M53.7,0" transform="translate(0 -5.45)"/><path class="cls-1" d="M53.7,84.51" transform="translate(0 -5.45)"/><path class="cls-1" d="M53.7,0" transform="translate(0 -5.45)"/><path class="cls-1" d="M14,97.18h33c6.07,0,11-4,11-8.87v-71c0-4.9-4.92-8.87-11-8.87H14c-6.07,0-11,4-11,8.87v71C3,93.21,7.92,97.18,14,97.18Z" transform="translate(0 -5.45)"/><line class="cls-1" x1="49.48" y1="100.18" x2="49.53" y2="91.93"/><line class="cls-1" x1="3" y1="36.8" x2="53.7" y2="36.8"/><line class="cls-1" x1="45.25" y1="12.08" x2="45.25" y2="28.98"/><line class="cls-1" x1="45.25" y1="44.63" x2="45.25" y2="61.53"/></g></g></svg>