<svg xmlns="http://www.w3.org/2000/svg" viewBox="0 0 60.93 95.03"><defs><style>.cls-1{fill:none;}.cls-1,.cls-2{stroke:#fff;stroke-miterlimit:10;stroke-width:6px;}.cls-2{fill:#c6e17e;}</style></defs><title>Asset 38</title><g id="Layer_2" data-name="Layer 2"><g id="Layer_1-2" data-name="Layer 1"><path class="cls-1" d="M53.7,80" transform="translate(0 -5)"/><path class="cls-1" d="M53.7,0" transform="translate(0 -5)"/><path class="cls-1" d="M53.7,80" transform="translate(0 -5)"/><path class="cls-2" d="M11.45,80" transform="translate(0 -5)"/><path class="cls-2" d="M11.45,80" transform="translate(0 -5)"/><path class="cls-2" d="M11.45,0" transform="translate(0 -5)"/><path class="cls-1" d="M53.7,0" transform="translate(0 -5)"/><path class="cls-2" d="M11.45,0" transform="translate(0 -5)"/><path class="cls-1" d="M14,92h33c6.07,0,11-3.76,11-8.4V16.4c0-4.64-4.92-8.4-11-8.4H14C7.92,8,3,11.76,3,16.4V83.6C3,88.24,7.92,92,14,92Z" transform="translate(0 -5)"/><line class="cls-2" x1="11.45" y1="95" x2="11.53" y2="87.19"/><line class="cls-1" x1="49.48" y1="95" x2="49.53" y2="87.19"/><line class="cls-1" x1="3" y1="35" x2="53.7" y2="35"/><line class="cls-1" x1="45.25" y1="11.59" x2="45.25" y2="27.59"/><line class="cls-1" x1="45.25" y1="42.41" x2="45.25" y2="58.41"/></g></g></svg>