<svg xmlns="http://www.w3.org/2000/svg" viewBox="0 0 105.77 102.5"><defs><style>.cls-1,.cls-2{fill:none;stroke:#000;stroke-miterlimit:10;}.cls-1{stroke-width:6px;}.cls-2{stroke-width:8px;}</style></defs><title>Asset 31</title><g id="Layer_2" data-name="Layer 2"><g id="Layer_1-2" data-name="Layer 1"><polygon class="cls-1" points="90.95 35.5 72.95 25.09 72.95 3 90.7 3 90.95 35.5"/><path class="cls-1" d="M51.78,27.83,15.67,53a3.11,3.11,0,0,0-1.32,2.55V96.41a3.07,3.07,0,0,0,3,3.09H41.14a3.07,3.07,0,0,0,3-3.09V76.72a3.07,3.07,0,0,1,3-3.09H59.79a3.07,3.07,0,0,1,3,3.09V96.41a3.07,3.07,0,0,0,3,3.09H89.63a3.07,3.07,0,0,0,3-3.09V55.58A3.11,3.11,0,0,0,91.35,53L55.24,27.83A3,3,0,0,0,51.78,27.83Z"/><path class="cls-2" d="M103.44,46.51,54.35,11.29a1.45,1.45,0,0,0-1.78,0L2.32,47"/></g></g></svg>