<svg xmlns="http://www.w3.org/2000/svg" viewBox="0 0 95.28 104"><defs><style>.cls-1{fill:#fff;stroke-width:6px;}.cls-1,.cls-2{stroke:#fff;stroke-miterlimit:10;}.cls-2{fill:none;stroke-width:8px;}</style></defs><title>Asset 33</title><g id="Layer_2" data-name="Layer 2"><g id="Layer_1-2" data-name="Layer 1"><g id="Chart_Arrows_1" data-name="Chart Arrows 1"><path class="cls-1" d="M5.54,69.32a6.81,6.81,0,0,1,0-8.56L27.73,36a4,4,0,0,1,6.05,0L49.52,53.55a2.92,2.92,0,0,0,4.44,0L69.69,36a3.81,3.81,0,0,0,0-5L64,24.72c-2-2.25-.4-5.86,2-5.86H87.44a5.21,5.21,0,0,1,4.84,5.41V48.15c0,3-3.24,4.49-5.13,2.38l-5.76-6.43a2.92,2.92,0,0,0-4.44,0L54.36,69.32a3.71,3.71,0,0,1-5.65,0L33,51.75a2.92,2.92,0,0,0-4.44,0L13.21,68.87C10.79,71.58,7.56,71.58,5.54,69.32Z"/></g><polyline class="cls-2" points="92.32 100 7.21 100 4 95.06 4 0"/></g></g></svg>