<svg xmlns="http://www.w3.org/2000/svg" viewBox="0 0 95.28 93.54"><defs><style>.cls-1,.cls-2{fill:none;stroke:#000;stroke-miterlimit:10;}.cls-1{stroke-width:6px;}.cls-2{stroke-width:8px;}</style></defs><title>Asset 27</title><g id="Layer_2" data-name="Layer 2"><g id="Layer_1-2" data-name="Layer 1"><g id="Chart_Arrows_1" data-name="Chart Arrows 1"><path class="cls-1" d="M5.54,62.07a5.61,5.61,0,0,1,0-7.67L27.73,32.22a4.29,4.29,0,0,1,6.05,0L49.52,48A3.15,3.15,0,0,0,54,48L69.69,32.22a3.15,3.15,0,0,0,0-4.44L64,22.13a3.07,3.07,0,0,1,2-5.24H87.44a4.91,4.91,0,0,1,4.84,4.84V43.11a3,3,0,0,1-5.13,2.13l-5.76-5.76a3.15,3.15,0,0,0-4.44,0L54.36,62.07a4,4,0,0,1-5.65,0L33,46.34a3.15,3.15,0,0,0-4.44,0L13.21,61.67C10.79,64.09,7.56,64.09,5.54,62.07Z"/></g><polyline class="cls-2" points="92.32 89.54 7.21 89.54 4 85.11 4 0"/></g></g></svg>