<svg xmlns="http://www.w3.org/2000/svg" viewBox="0 0 364.5 402.15"><defs><style>.cls-1{fill:#a5cfa2;}.cls-2{fill:#386324;stroke:#fff;stroke-miterlimit:10;stroke-width:17px;}</style></defs><title>Asset 6</title><g id="Layer_2" data-name="Layer 2"><g id="Layer_1-2" data-name="Layer 1"><path class="cls-1" d="M259,216.1c-49.18,2.8-83.8,74.13-63,149.29,1.68,6.28,6.61,11.67,9.9,11.44a128.4,128.4,0,0,0,21.84-3c2.66-.65,3.31-5.75,2-10.84-17-61.61,7.31-118.55,44.24-126.57C280.13,235.87,267.34,215.92,259,216.1Z"/><path class="cls-1" d="M93.28,245.86c21.87,22.08,38.83,65.25,49.14,120,.86,4.23,2.58,8.27,3.81,8.37,5.41.43,12.42.71,21,.54,2,0,4.64-4.38,5.23-9.17,7.33-61.61-13.62-127.1-58.54-136.54C107.54,227.79,90,243.23,93.28,245.86Z"/><path class="cls-1" d="M169.86,212.28,130.68,385.81a13.39,13.39,0,0,0,13.06,16.34H222.1a13.39,13.39,0,0,0,13.06-16.34L196,212.28C192.84,198.36,173,198.36,169.86,212.28Z"/><path class="cls-2" d="M298.09,89.64a57.8,57.8,0,0,0,.72-9.08c0-32.39-26.84-58.64-60-58.64a60.49,60.49,0,0,0-39.34,14.41A67.54,67.54,0,0,0,144.58,8.5c-37,0-67.05,29.18-67.05,65.18,0,.82,0,1.64.06,2.46a61.75,61.75,0,0,0-9.14-.68c-33.11,0-60,26.25-60,58.64,0,29.78,22.69,54.35,52.09,58.12,7.26,28.37,33.63,49.39,65.06,49.39a67.62,67.62,0,0,0,52.77-25,68.62,68.62,0,0,0,75.31-7,68.16,68.16,0,0,0,35.21,9.71c37,0,67.05-29.18,67.05-65.18C356,121.21,330.79,94,298.09,89.64Z"/><circle cx="124" cy="292.65" r="19.5"/><circle cx="229" cy="286.65" r="19.5"/><rect x="85.89" y="241.4" width="71.92" height="14.45" transform="translate(113.24 -28.12) rotate(24.33)"/><rect x="199.89" y="230.4" width="71.92" height="14.45" transform="translate(543.1 370.63) rotate(158.19)"/><path d="M239.5,377.15a70.31,70.31,0,0,0-104,0l-12.57-11.44a87.31,87.31,0,0,1,129.15,0Z"/></g></g></svg>