<svg xmlns="http://www.w3.org/2000/svg" xmlns:xlink="http://www.w3.org/1999/xlink" viewBox="0 0 164.87 230.76"><defs><style>.cls-1{stroke:#003f19;stroke-miterlimit:10;stroke-width:14px;fill:url(#radial-gradient);}.cls-2{fill:url(#radial-gradient-2);}</style><radialGradient id="radial-gradient" cx="108.63" cy="444.15" fx="116.29014843819878" r="25.88" gradientTransform="matrix(-2.65, 0.21, -0.25, -4.25, 484.78, 1982.58)" gradientUnits="userSpaceOnUse"><stop offset="0" stop-color="#ffff95"/><stop offset="0.45" stop-color="#fdfe93"/><stop offset="0.62" stop-color="#f6fd8d"/><stop offset="0.73" stop-color="#ebf983"/><stop offset="0.83" stop-color="#daf574"/><stop offset="0.91" stop-color="#c4ef60"/><stop offset="0.98" stop-color="#a9e848"/><stop offset="1" stop-color="#9fe53f"/></radialGradient><radialGradient id="radial-gradient-2" cx="-600.78" cy="1645.52" fx="-618.1956080455744" r="39.12" gradientTransform="translate(541.68 -1181.31) scale(0.76 0.8)" gradientUnits="userSpaceOnUse"><stop offset="0" stop-color="#c69c6d"/><stop offset="0.26" stop-color="#c3996a"/><stop offset="0.47" stop-color="#b98f61"/><stop offset="0.65" stop-color="#a97f53"/><stop offset="0.82" stop-color="#92683e"/><stop offset="0.98" stop-color="#754c24"/></radialGradient></defs><title>Asset 3</title><g id="Layer_2" data-name="Layer 2"><g id="Layer_1-2" data-name="Layer 1"><path class="cls-1" d="M106.37,12.2c-10.58-8.74-44-5.56-54.82,2.91C30.72,31.41,11.77,134.16,13.17,160.57s26.77,44.55,49.2,58.57c11.64,7.27,44.13,5.7,54.82-2.91,20.6-16.58,39.84-36.9,40.66-63.33S126.75,29,106.37,12.2Z"/><ellipse class="cls-2" cx="84.34" cy="133.68" rx="31.63" ry="37.18" transform="translate(-6.96 4.66) rotate(-3.04)"/><circle cx="54.15" cy="79.28" r="19.5" transform="translate(-26.88 130.77) rotate(-88.1)"/><circle cx="109.29" cy="76.76" r="19.5" transform="translate(28.96 183.44) rotate(-88.1)"/><rect x="-0.51" y="28.98" width="71.92" height="14.45" transform="translate(19.65 -11.94) rotate(26.22)"/><rect x="82.79" y="25.76" width="71.92" height="14.45" transform="translate(238.09 2.18) rotate(150)"/><path d="M137.92,213.75a70.31,70.31,0,0,0-104,0L21.34,202.3a87.31,87.31,0,0,1,129.15,0Z"/></g></g></svg>